<mxfile host="app.diagrams.net" agent="Mozilla/5.0 (Windows NT 10.0; Win64; x64) AppleWebKit/537.36 (KHTML, like Gecko) Chrome/133.0.0.0 Safari/537.36" version="26.0.14">
  <diagram name="Page-1" id="ewF5Gl14Q7uHlRDfD-Uw">
    <mxGraphModel dx="2157" dy="673" grid="1" gridSize="10" guides="1" tooltips="1" connect="1" arrows="1" fold="1" page="1" pageScale="1" pageWidth="827" pageHeight="1169" math="0" shadow="0">
      <root>
        <mxCell id="0" />
        <mxCell id="1" parent="0" />
        <mxCell id="wNvszSJTGbj_hHc-pR2u-3" value="" style="edgeStyle=orthogonalEdgeStyle;rounded=0;orthogonalLoop=1;jettySize=auto;html=1;" parent="1" source="wNvszSJTGbj_hHc-pR2u-1" target="wNvszSJTGbj_hHc-pR2u-2" edge="1">
          <mxGeometry relative="1" as="geometry" />
        </mxCell>
        <mxCell id="wNvszSJTGbj_hHc-pR2u-1" value="&lt;div style=&quot;color: #383a42;background-color: #f5f5f5;font-family: Consolas, &#39;Courier New&#39;, monospace;font-weight: normal;font-size: 14px;line-height: 19px;white-space: pre;&quot;&gt;&lt;div&gt;&lt;span style=&quot;color: #aca600;&quot;&gt;VIDIOC_QBUF&lt;/span&gt;&lt;/div&gt;&lt;/div&gt;" style="text;whiteSpace=wrap;html=1;" parent="1" vertex="1">
          <mxGeometry x="-225" y="40" width="90" height="30" as="geometry" />
        </mxCell>
        <mxCell id="wNvszSJTGbj_hHc-pR2u-6" value="" style="edgeStyle=orthogonalEdgeStyle;rounded=0;orthogonalLoop=1;jettySize=auto;html=1;" parent="1" source="wNvszSJTGbj_hHc-pR2u-2" target="wNvszSJTGbj_hHc-pR2u-4" edge="1">
          <mxGeometry relative="1" as="geometry" />
        </mxCell>
        <mxCell id="wNvszSJTGbj_hHc-pR2u-2" value="&lt;div style=&quot;color: #383a42;background-color: #f5f5f5;font-family: Consolas, &#39;Courier New&#39;, monospace;font-weight: normal;font-size: 14px;line-height: 19px;white-space: pre;&quot;&gt;&lt;div&gt;&lt;span style=&quot;color: #4078f2;&quot;&gt;v4l_qbuf&lt;/span&gt;&lt;/div&gt;&lt;/div&gt;" style="text;whiteSpace=wrap;html=1;" parent="1" vertex="1">
          <mxGeometry x="-215" y="90" width="70" height="30" as="geometry" />
        </mxCell>
        <mxCell id="wNvszSJTGbj_hHc-pR2u-8" value="" style="edgeStyle=orthogonalEdgeStyle;rounded=0;orthogonalLoop=1;jettySize=auto;html=1;" parent="1" source="wNvszSJTGbj_hHc-pR2u-4" target="wNvszSJTGbj_hHc-pR2u-7" edge="1">
          <mxGeometry relative="1" as="geometry" />
        </mxCell>
        <mxCell id="wNvszSJTGbj_hHc-pR2u-4" value="&lt;div style=&quot;color: rgb(56, 58, 66); background-color: rgb(245, 245, 245); font-family: Consolas, &amp;quot;Courier New&amp;quot;, monospace; font-weight: normal; font-size: 14px; line-height: 19px; white-space: pre;&quot;&gt;&lt;div&gt;&lt;span style=&quot;color: rgb(228, 86, 73);&quot;&gt;.vidioc_qbuf&lt;/span&gt;&lt;/div&gt;&lt;div&gt;&lt;span style=&quot;color: rgb(228, 86, 73);&quot;&gt;(&lt;/span&gt;&lt;span style=&quot;color: rgb(64, 120, 242); background-color: light-dark(rgb(245, 245, 245), rgb(26, 26, 26));&quot;&gt;vb2_ioctl_qbuf&lt;/span&gt;&lt;span style=&quot;color: light-dark(rgb(228, 86, 73), rgb(235, 113, 102)); background-color: light-dark(rgb(245, 245, 245), rgb(26, 26, 26));&quot;&gt;)&lt;/span&gt;&lt;/div&gt;&lt;/div&gt;" style="text;whiteSpace=wrap;html=1;align=center;" parent="1" vertex="1">
          <mxGeometry x="-245" y="140" width="130" height="50" as="geometry" />
        </mxCell>
        <mxCell id="wNvszSJTGbj_hHc-pR2u-10" value="" style="edgeStyle=orthogonalEdgeStyle;rounded=0;orthogonalLoop=1;jettySize=auto;html=1;" parent="1" source="wNvszSJTGbj_hHc-pR2u-7" target="wNvszSJTGbj_hHc-pR2u-9" edge="1">
          <mxGeometry relative="1" as="geometry" />
        </mxCell>
        <mxCell id="wNvszSJTGbj_hHc-pR2u-7" value="&lt;div style=&quot;color: #383a42;background-color: #f5f5f5;font-family: Consolas, &#39;Courier New&#39;, monospace;font-weight: normal;font-size: 14px;line-height: 19px;white-space: pre;&quot;&gt;&lt;div&gt;&lt;span style=&quot;color: #4078f2;&quot;&gt;vb2_qbuf&lt;/span&gt;&lt;/div&gt;&lt;/div&gt;" style="text;whiteSpace=wrap;html=1;" parent="1" vertex="1">
          <mxGeometry x="-215" y="210" width="70" height="30" as="geometry" />
        </mxCell>
        <mxCell id="wNvszSJTGbj_hHc-pR2u-12" style="edgeStyle=orthogonalEdgeStyle;rounded=0;orthogonalLoop=1;jettySize=auto;html=1;exitX=0.5;exitY=1;exitDx=0;exitDy=0;entryX=0.5;entryY=0;entryDx=0;entryDy=0;" parent="1" source="wNvszSJTGbj_hHc-pR2u-9" target="wNvszSJTGbj_hHc-pR2u-11" edge="1">
          <mxGeometry relative="1" as="geometry" />
        </mxCell>
        <mxCell id="wNvszSJTGbj_hHc-pR2u-83" style="edgeStyle=orthogonalEdgeStyle;rounded=0;orthogonalLoop=1;jettySize=auto;html=1;exitX=0.5;exitY=1;exitDx=0;exitDy=0;entryX=0.5;entryY=0;entryDx=0;entryDy=0;" parent="1" source="wNvszSJTGbj_hHc-pR2u-9" target="wNvszSJTGbj_hHc-pR2u-78" edge="1">
          <mxGeometry relative="1" as="geometry" />
        </mxCell>
        <mxCell id="wNvszSJTGbj_hHc-pR2u-9" value="&lt;div style=&quot;color: #383a42;background-color: #f5f5f5;font-family: Consolas, &#39;Courier New&#39;, monospace;font-weight: normal;font-size: 14px;line-height: 19px;white-space: pre;&quot;&gt;&lt;div&gt;&lt;span style=&quot;color: #4078f2;&quot;&gt;vb2_core_qbuf&lt;/span&gt;&lt;/div&gt;&lt;/div&gt;" style="text;whiteSpace=wrap;html=1;" parent="1" vertex="1">
          <mxGeometry x="-235" y="260" width="110" height="30" as="geometry" />
        </mxCell>
        <mxCell id="wNvszSJTGbj_hHc-pR2u-16" value="" style="edgeStyle=orthogonalEdgeStyle;rounded=0;orthogonalLoop=1;jettySize=auto;html=1;" parent="1" source="wNvszSJTGbj_hHc-pR2u-11" target="wNvszSJTGbj_hHc-pR2u-14" edge="1">
          <mxGeometry relative="1" as="geometry" />
        </mxCell>
        <mxCell id="wNvszSJTGbj_hHc-pR2u-11" value="&lt;div style=&quot;color: #383a42;background-color: #f5f5f5;font-family: Consolas, &#39;Courier New&#39;, monospace;font-weight: normal;font-size: 14px;line-height: 19px;white-space: pre;&quot;&gt;&lt;div&gt;&lt;span style=&quot;color: #4078f2;&quot;&gt;__buf_prepare&lt;/span&gt;&lt;/div&gt;&lt;/div&gt;" style="text;whiteSpace=wrap;html=1;" parent="1" vertex="1">
          <mxGeometry x="-345" y="330" width="110" height="30" as="geometry" />
        </mxCell>
        <mxCell id="wNvszSJTGbj_hHc-pR2u-14" value="&lt;div style=&quot;color: rgb(56, 58, 66); background-color: rgb(245, 245, 245); font-family: Consolas, &amp;quot;Courier New&amp;quot;, monospace; font-weight: normal; font-size: 14px; line-height: 19px; white-space: pre;&quot;&gt;&lt;div&gt;&lt;span style=&quot;color: rgb(228, 86, 73);&quot;&gt;vb2_ops-&amp;gt;buf_prepare&lt;/span&gt;&lt;/div&gt;&lt;/div&gt;" style="text;whiteSpace=wrap;html=1;" parent="1" vertex="1">
          <mxGeometry x="-370" y="400" width="160" height="30" as="geometry" />
        </mxCell>
        <mxCell id="wNvszSJTGbj_hHc-pR2u-31" value="" style="edgeStyle=orthogonalEdgeStyle;rounded=0;orthogonalLoop=1;jettySize=auto;html=1;" parent="1" source="wNvszSJTGbj_hHc-pR2u-28" target="wNvszSJTGbj_hHc-pR2u-30" edge="1">
          <mxGeometry relative="1" as="geometry" />
        </mxCell>
        <mxCell id="wNvszSJTGbj_hHc-pR2u-28" value="&lt;div style=&quot;color: #383a42;background-color: #f5f5f5;font-family: Consolas, &#39;Courier New&#39;, monospace;font-weight: normal;font-size: 14px;line-height: 19px;white-space: pre;&quot;&gt;&lt;div&gt;&lt;span style=&quot;color: #aca600;&quot;&gt;VIDIOC_STREAMON&lt;/span&gt;&lt;/div&gt;&lt;/div&gt;" style="text;whiteSpace=wrap;html=1;" parent="1" vertex="1">
          <mxGeometry x="750" y="37.5" width="120" height="32.5" as="geometry" />
        </mxCell>
        <mxCell id="wNvszSJTGbj_hHc-pR2u-34" value="" style="edgeStyle=orthogonalEdgeStyle;rounded=0;orthogonalLoop=1;jettySize=auto;html=1;" parent="1" source="wNvszSJTGbj_hHc-pR2u-29" target="wNvszSJTGbj_hHc-pR2u-33" edge="1">
          <mxGeometry relative="1" as="geometry" />
        </mxCell>
        <mxCell id="wNvszSJTGbj_hHc-pR2u-29" value="&lt;div style=&quot;color: rgb(56, 58, 66); background-color: rgb(245, 245, 245); font-family: Consolas, &amp;quot;Courier New&amp;quot;, monospace; font-weight: normal; font-size: 14px; line-height: 19px; white-space: pre;&quot;&gt;&lt;div&gt;&lt;span style=&quot;color: rgb(228, 86, 73);&quot;&gt;vidioc_streamon&lt;/span&gt;&lt;/div&gt;&lt;div&gt;&lt;span style=&quot;color: rgb(228, 86, 73);&quot;&gt;(&lt;/span&gt;&lt;span style=&quot;color: rgb(64, 120, 242); background-color: light-dark(rgb(245, 245, 245), rgb(26, 26, 26));&quot;&gt;vb2_ioctl_streamon&lt;/span&gt;&lt;span style=&quot;color: light-dark(rgb(228, 86, 73), rgb(235, 113, 102)); background-color: light-dark(rgb(245, 245, 245), rgb(26, 26, 26));&quot;&gt;)&lt;/span&gt;&lt;/div&gt;&lt;/div&gt;" style="text;whiteSpace=wrap;html=1;align=center;" parent="1" vertex="1">
          <mxGeometry x="730" y="140" width="160" height="50" as="geometry" />
        </mxCell>
        <mxCell id="wNvszSJTGbj_hHc-pR2u-32" value="" style="edgeStyle=orthogonalEdgeStyle;rounded=0;orthogonalLoop=1;jettySize=auto;html=1;" parent="1" source="wNvszSJTGbj_hHc-pR2u-30" target="wNvszSJTGbj_hHc-pR2u-29" edge="1">
          <mxGeometry relative="1" as="geometry" />
        </mxCell>
        <mxCell id="wNvszSJTGbj_hHc-pR2u-30" value="&lt;div style=&quot;color: #383a42;background-color: #f5f5f5;font-family: Consolas, &#39;Courier New&#39;, monospace;font-weight: normal;font-size: 14px;line-height: 19px;white-space: pre;&quot;&gt;&lt;div&gt;&lt;span style=&quot;color: #4078f2;&quot;&gt;v4l_streamon&lt;/span&gt;&lt;/div&gt;&lt;/div&gt;" style="text;whiteSpace=wrap;html=1;" parent="1" vertex="1">
          <mxGeometry x="760" y="90" width="100" height="30" as="geometry" />
        </mxCell>
        <mxCell id="wNvszSJTGbj_hHc-pR2u-36" style="edgeStyle=orthogonalEdgeStyle;rounded=0;orthogonalLoop=1;jettySize=auto;html=1;exitX=0.5;exitY=1;exitDx=0;exitDy=0;entryX=0.5;entryY=0;entryDx=0;entryDy=0;" parent="1" source="wNvszSJTGbj_hHc-pR2u-33" target="wNvszSJTGbj_hHc-pR2u-35" edge="1">
          <mxGeometry relative="1" as="geometry" />
        </mxCell>
        <mxCell id="wNvszSJTGbj_hHc-pR2u-33" value="&lt;div style=&quot;color: #383a42;background-color: #f5f5f5;font-family: Consolas, &#39;Courier New&#39;, monospace;font-weight: normal;font-size: 14px;line-height: 19px;white-space: pre;&quot;&gt;&lt;div&gt;&lt;span style=&quot;color: #4078f2;&quot;&gt;vb2_core_streamon&lt;/span&gt;&lt;/div&gt;&lt;/div&gt;" style="text;whiteSpace=wrap;html=1;" parent="1" vertex="1">
          <mxGeometry x="740" y="210" width="140" height="30" as="geometry" />
        </mxCell>
        <mxCell id="wNvszSJTGbj_hHc-pR2u-41" style="edgeStyle=orthogonalEdgeStyle;rounded=0;orthogonalLoop=1;jettySize=auto;html=1;exitX=0.5;exitY=1;exitDx=0;exitDy=0;entryX=0.5;entryY=0;entryDx=0;entryDy=0;" parent="1" source="wNvszSJTGbj_hHc-pR2u-35" target="wNvszSJTGbj_hHc-pR2u-39" edge="1">
          <mxGeometry relative="1" as="geometry">
            <Array as="points">
              <mxPoint x="810" y="310" />
              <mxPoint x="739" y="310" />
            </Array>
          </mxGeometry>
        </mxCell>
        <mxCell id="wNvszSJTGbj_hHc-pR2u-42" style="edgeStyle=orthogonalEdgeStyle;rounded=0;orthogonalLoop=1;jettySize=auto;html=1;exitX=0.5;exitY=1;exitDx=0;exitDy=0;entryX=0.5;entryY=0;entryDx=0;entryDy=0;" parent="1" source="wNvszSJTGbj_hHc-pR2u-35" target="wNvszSJTGbj_hHc-pR2u-40" edge="1">
          <mxGeometry relative="1" as="geometry">
            <Array as="points">
              <mxPoint x="810" y="310" />
              <mxPoint x="935" y="310" />
            </Array>
          </mxGeometry>
        </mxCell>
        <mxCell id="wNvszSJTGbj_hHc-pR2u-35" value="&lt;div style=&quot;color: #383a42;background-color: #f5f5f5;font-family: Consolas, &#39;Courier New&#39;, monospace;font-weight: normal;font-size: 14px;line-height: 19px;white-space: pre;&quot;&gt;&lt;div&gt;&lt;span style=&quot;color: #4078f2;&quot;&gt;vb2_start_streaming&lt;/span&gt;&lt;/div&gt;&lt;/div&gt;" style="text;whiteSpace=wrap;html=1;" parent="1" vertex="1">
          <mxGeometry x="731.5" y="260" width="157" height="30" as="geometry" />
        </mxCell>
        <mxCell id="wNvszSJTGbj_hHc-pR2u-37" value="&lt;div style=&quot;color: rgb(56, 58, 66); background-color: rgb(245, 245, 245); font-family: Consolas, &amp;quot;Courier New&amp;quot;, monospace; font-weight: normal; font-size: 14px; line-height: 19px; white-space: pre;&quot;&gt;&lt;div&gt;&lt;span style=&quot;color: rgb(228, 86, 73);&quot;&gt;vb2_ops-&amp;gt;buf_queue&lt;/span&gt;&lt;/div&gt;&lt;/div&gt;" style="text;whiteSpace=wrap;html=1;" parent="1" vertex="1">
          <mxGeometry x="665.5" y="380" width="146" height="30" as="geometry" />
        </mxCell>
        <mxCell id="wNvszSJTGbj_hHc-pR2u-38" style="edgeStyle=orthogonalEdgeStyle;rounded=0;orthogonalLoop=1;jettySize=auto;html=1;exitX=0.5;exitY=1;exitDx=0;exitDy=0;entryX=0.5;entryY=0;entryDx=0;entryDy=0;" parent="1" source="wNvszSJTGbj_hHc-pR2u-39" target="wNvszSJTGbj_hHc-pR2u-37" edge="1">
          <mxGeometry relative="1" as="geometry" />
        </mxCell>
        <mxCell id="wNvszSJTGbj_hHc-pR2u-39" value="&lt;div style=&quot;color: #383a42;background-color: #f5f5f5;font-family: Consolas, &#39;Courier New&#39;, monospace;font-weight: normal;font-size: 14px;line-height: 19px;white-space: pre;&quot;&gt;&lt;div&gt;&lt;span style=&quot;color: #4078f2;&quot;&gt;__enqueue_in_driver&lt;/span&gt;&lt;/div&gt;&lt;/div&gt;" style="text;whiteSpace=wrap;html=1;" parent="1" vertex="1">
          <mxGeometry x="660" y="330" width="157" height="30" as="geometry" />
        </mxCell>
        <mxCell id="wNvszSJTGbj_hHc-pR2u-40" value="&lt;div style=&quot;color: rgb(56, 58, 66); background-color: rgb(245, 245, 245); font-family: Consolas, &amp;quot;Courier New&amp;quot;, monospace; font-weight: normal; font-size: 14px; line-height: 19px; white-space: pre;&quot;&gt;&lt;div&gt;&lt;span style=&quot;color: rgb(228, 86, 73);&quot;&gt;vb2_ops-&amp;gt;start_streaming&lt;/span&gt;&lt;/div&gt;&lt;/div&gt;" style="text;whiteSpace=wrap;html=1;" parent="1" vertex="1">
          <mxGeometry x="840" y="380" width="190" height="30" as="geometry" />
        </mxCell>
        <mxCell id="wNvszSJTGbj_hHc-pR2u-45" value="" style="edgeStyle=orthogonalEdgeStyle;rounded=0;orthogonalLoop=1;jettySize=auto;html=1;" parent="1" source="wNvszSJTGbj_hHc-pR2u-43" target="wNvszSJTGbj_hHc-pR2u-44" edge="1">
          <mxGeometry relative="1" as="geometry" />
        </mxCell>
        <mxCell id="wNvszSJTGbj_hHc-pR2u-43" value="&lt;div style=&quot;color: #383a42;background-color: #f5f5f5;font-family: Consolas, &#39;Courier New&#39;, monospace;font-weight: normal;font-size: 14px;line-height: 19px;white-space: pre;&quot;&gt;&lt;div&gt;&lt;span style=&quot;color: #aca600;&quot;&gt;VIDIOC_REQBUFS&lt;/span&gt;&lt;/div&gt;&lt;/div&gt;" style="text;whiteSpace=wrap;html=1;" parent="1" vertex="1">
          <mxGeometry x="-577.5" y="50" width="120" height="30" as="geometry" />
        </mxCell>
        <mxCell id="wNvszSJTGbj_hHc-pR2u-47" value="" style="edgeStyle=orthogonalEdgeStyle;rounded=0;orthogonalLoop=1;jettySize=auto;html=1;" parent="1" source="wNvszSJTGbj_hHc-pR2u-44" target="wNvszSJTGbj_hHc-pR2u-46" edge="1">
          <mxGeometry relative="1" as="geometry" />
        </mxCell>
        <mxCell id="wNvszSJTGbj_hHc-pR2u-44" value="&lt;div style=&quot;color: #383a42;background-color: #f5f5f5;font-family: Consolas, &#39;Courier New&#39;, monospace;font-weight: normal;font-size: 14px;line-height: 19px;white-space: pre;&quot;&gt;&lt;div&gt;&lt;span style=&quot;color: #4078f2;&quot;&gt;v4l_reqbufs&lt;/span&gt;&lt;/div&gt;&lt;/div&gt;" style="text;whiteSpace=wrap;html=1;" parent="1" vertex="1">
          <mxGeometry x="-562.5" y="100" width="90" height="30" as="geometry" />
        </mxCell>
        <mxCell id="wNvszSJTGbj_hHc-pR2u-49" value="" style="edgeStyle=orthogonalEdgeStyle;rounded=0;orthogonalLoop=1;jettySize=auto;html=1;" parent="1" source="wNvszSJTGbj_hHc-pR2u-46" target="wNvszSJTGbj_hHc-pR2u-48" edge="1">
          <mxGeometry relative="1" as="geometry" />
        </mxCell>
        <mxCell id="wNvszSJTGbj_hHc-pR2u-46" value="&lt;div style=&quot;color: rgb(56, 58, 66); background-color: rgb(245, 245, 245); font-family: Consolas, &amp;quot;Courier New&amp;quot;, monospace; font-weight: normal; font-size: 14px; line-height: 19px; white-space: pre;&quot;&gt;&lt;div&gt;&lt;span style=&quot;color: rgb(228, 86, 73);&quot;&gt;.&lt;/span&gt;&lt;span style=&quot;color: rgb(228, 86, 73); background-color: light-dark(rgb(245, 245, 245), rgb(26, 26, 26));&quot;&gt;vidioc_reqbufs&lt;/span&gt;&lt;/div&gt;&lt;div&gt;&lt;span style=&quot;color: rgb(228, 86, 73);&quot;&gt;(&lt;/span&gt;&lt;span style=&quot;color: rgb(64, 120, 242); background-color: light-dark(rgb(245, 245, 245), rgb(26, 26, 26));&quot;&gt;vb2_ioctl_reqbufs&lt;/span&gt;&lt;span style=&quot;background-color: light-dark(rgb(245, 245, 245), rgb(26, 26, 26)); color: light-dark(rgb(228, 86, 73), rgb(235, 113, 102));&quot;&gt;)&lt;/span&gt;&lt;br&gt;&lt;/div&gt;&lt;/div&gt;" style="text;whiteSpace=wrap;html=1;align=center;" parent="1" vertex="1">
          <mxGeometry x="-595" y="150" width="155" height="50" as="geometry" />
        </mxCell>
        <mxCell id="wNvszSJTGbj_hHc-pR2u-51" value="" style="edgeStyle=orthogonalEdgeStyle;rounded=0;orthogonalLoop=1;jettySize=auto;html=1;" parent="1" source="wNvszSJTGbj_hHc-pR2u-48" target="wNvszSJTGbj_hHc-pR2u-50" edge="1">
          <mxGeometry relative="1" as="geometry" />
        </mxCell>
        <mxCell id="wNvszSJTGbj_hHc-pR2u-53" style="edgeStyle=orthogonalEdgeStyle;rounded=0;orthogonalLoop=1;jettySize=auto;html=1;exitX=0.5;exitY=1;exitDx=0;exitDy=0;entryX=0.5;entryY=0;entryDx=0;entryDy=0;" parent="1" source="wNvszSJTGbj_hHc-pR2u-48" target="wNvszSJTGbj_hHc-pR2u-52" edge="1">
          <mxGeometry relative="1" as="geometry" />
        </mxCell>
        <mxCell id="wNvszSJTGbj_hHc-pR2u-48" value="&lt;div style=&quot;color: #383a42;background-color: #f5f5f5;font-family: Consolas, &#39;Courier New&#39;, monospace;font-weight: normal;font-size: 14px;line-height: 19px;white-space: pre;&quot;&gt;&lt;div&gt;&lt;span style=&quot;color: #4078f2;&quot;&gt;vb2_core_reqbufs&lt;/span&gt;&lt;/div&gt;&lt;/div&gt;" style="text;whiteSpace=wrap;html=1;" parent="1" vertex="1">
          <mxGeometry x="-582.5" y="220" width="130" height="30" as="geometry" />
        </mxCell>
        <mxCell id="wNvszSJTGbj_hHc-pR2u-50" value="&lt;div style=&quot;color: rgb(56, 58, 66); background-color: rgb(245, 245, 245); font-family: Consolas, &amp;quot;Courier New&amp;quot;, monospace; font-weight: normal; font-size: 14px; line-height: 19px; white-space: pre;&quot;&gt;&lt;div&gt;&lt;span style=&quot;color: rgb(228, 86, 73);&quot;&gt;vb2_ops-&amp;gt;queue_setup&lt;/span&gt;&lt;/div&gt;&lt;/div&gt;" style="text;whiteSpace=wrap;html=1;" parent="1" vertex="1">
          <mxGeometry x="-730" y="325" width="167.5" height="35" as="geometry" />
        </mxCell>
        <mxCell id="wNvszSJTGbj_hHc-pR2u-55" value="" style="edgeStyle=orthogonalEdgeStyle;rounded=0;orthogonalLoop=1;jettySize=auto;html=1;" parent="1" source="wNvszSJTGbj_hHc-pR2u-52" target="wNvszSJTGbj_hHc-pR2u-54" edge="1">
          <mxGeometry relative="1" as="geometry" />
        </mxCell>
        <mxCell id="wNvszSJTGbj_hHc-pR2u-52" value="&lt;div style=&quot;color: #383a42;background-color: #f5f5f5;font-family: Consolas, &#39;Courier New&#39;, monospace;font-weight: normal;font-size: 14px;line-height: 19px;white-space: pre;&quot;&gt;&lt;div&gt;&lt;span style=&quot;color: #4078f2;&quot;&gt;__vb2_queue_alloc&lt;/span&gt;&lt;/div&gt;&lt;/div&gt;" style="text;whiteSpace=wrap;html=1;" parent="1" vertex="1">
          <mxGeometry x="-507.5" y="325" width="137.5" height="30" as="geometry" />
        </mxCell>
        <mxCell id="wNvszSJTGbj_hHc-pR2u-54" value="&lt;div style=&quot;color: rgb(56, 58, 66); background-color: rgb(245, 245, 245); font-family: Consolas, &amp;quot;Courier New&amp;quot;, monospace; font-weight: normal; font-size: 14px; line-height: 19px; white-space: pre;&quot;&gt;&lt;div&gt;&lt;span style=&quot;color: rgb(228, 86, 73);&quot;&gt;&lt;span style=&quot;background-color: light-dark(rgb(245, 245, 245), rgb(26, 26, 26));&quot;&gt;vb2_ops-&amp;gt;&lt;/span&gt;buf_init&lt;/span&gt;&lt;/div&gt;&lt;/div&gt;" style="text;whiteSpace=wrap;html=1;" parent="1" vertex="1">
          <mxGeometry x="-508.75" y="380" width="140" height="30" as="geometry" />
        </mxCell>
        <mxCell id="wNvszSJTGbj_hHc-pR2u-56" value="&lt;font style=&quot;font-size: 11px; color: rgb(153, 153, 153);&quot;&gt;if(memory==mmap)&lt;/font&gt;" style="text;html=1;align=center;verticalAlign=middle;whiteSpace=wrap;rounded=0;" parent="1" vertex="1">
          <mxGeometry x="-548" y="360" width="108" height="30" as="geometry" />
        </mxCell>
        <mxCell id="wNvszSJTGbj_hHc-pR2u-67" style="edgeStyle=orthogonalEdgeStyle;rounded=0;orthogonalLoop=1;jettySize=auto;html=1;exitX=0.5;exitY=1;exitDx=0;exitDy=0;entryX=0.5;entryY=0;entryDx=0;entryDy=0;" parent="1" source="wNvszSJTGbj_hHc-pR2u-57" target="wNvszSJTGbj_hHc-pR2u-66" edge="1">
          <mxGeometry relative="1" as="geometry" />
        </mxCell>
        <mxCell id="wNvszSJTGbj_hHc-pR2u-75" style="edgeStyle=orthogonalEdgeStyle;rounded=0;orthogonalLoop=1;jettySize=auto;html=1;exitX=0.5;exitY=1;exitDx=0;exitDy=0;entryX=0.5;entryY=0;entryDx=0;entryDy=0;" parent="1" source="wNvszSJTGbj_hHc-pR2u-57" target="wNvszSJTGbj_hHc-pR2u-74" edge="1">
          <mxGeometry relative="1" as="geometry" />
        </mxCell>
        <mxCell id="wNvszSJTGbj_hHc-pR2u-57" value="&lt;div style=&quot;color: #383a42;background-color: #f5f5f5;font-family: Consolas, &#39;Courier New&#39;, monospace;font-weight: normal;font-size: 14px;line-height: 19px;white-space: pre;&quot;&gt;&lt;div&gt;&lt;span style=&quot;color: #4078f2;&quot;&gt;vb2_core_dqbuf&lt;/span&gt;&lt;/div&gt;&lt;/div&gt;" style="text;whiteSpace=wrap;html=1;" parent="1" vertex="1">
          <mxGeometry x="330" y="280" width="120" height="30" as="geometry" />
        </mxCell>
        <mxCell id="wNvszSJTGbj_hHc-pR2u-61" style="edgeStyle=orthogonalEdgeStyle;rounded=0;orthogonalLoop=1;jettySize=auto;html=1;exitX=0.5;exitY=1;exitDx=0;exitDy=0;entryX=0.5;entryY=0;entryDx=0;entryDy=0;" parent="1" source="wNvszSJTGbj_hHc-pR2u-58" target="wNvszSJTGbj_hHc-pR2u-57" edge="1">
          <mxGeometry relative="1" as="geometry" />
        </mxCell>
        <mxCell id="wNvszSJTGbj_hHc-pR2u-58" value="&lt;div style=&quot;color: #383a42;background-color: #f5f5f5;font-family: Consolas, &#39;Courier New&#39;, monospace;font-weight: normal;font-size: 14px;line-height: 19px;white-space: pre;&quot;&gt;&lt;div&gt;&lt;span style=&quot;color: #4078f2;&quot;&gt;vb2_dqbuf&lt;/span&gt;&lt;/div&gt;&lt;/div&gt;" style="text;whiteSpace=wrap;html=1;" parent="1" vertex="1">
          <mxGeometry x="350" y="220" width="80" height="30" as="geometry" />
        </mxCell>
        <mxCell id="wNvszSJTGbj_hHc-pR2u-60" style="edgeStyle=orthogonalEdgeStyle;rounded=0;orthogonalLoop=1;jettySize=auto;html=1;exitX=0.5;exitY=1;exitDx=0;exitDy=0;entryX=0.5;entryY=0;entryDx=0;entryDy=0;" parent="1" source="wNvszSJTGbj_hHc-pR2u-59" target="wNvszSJTGbj_hHc-pR2u-58" edge="1">
          <mxGeometry relative="1" as="geometry" />
        </mxCell>
        <mxCell id="wNvszSJTGbj_hHc-pR2u-59" value="&lt;div style=&quot;color: rgb(56, 58, 66); background-color: rgb(245, 245, 245); font-family: Consolas, &amp;quot;Courier New&amp;quot;, monospace; font-weight: normal; font-size: 14px; line-height: 19px; white-space: pre;&quot;&gt;&lt;div&gt;&lt;span style=&quot;color: rgb(64, 120, 242);&quot;&gt;&lt;div style=&quot;color: rgb(56, 58, 66); line-height: 19px;&quot;&gt;&lt;span style=&quot;color: rgb(228, 86, 73);&quot;&gt;.vidioc_dqbuf&lt;/span&gt;&lt;/div&gt;&lt;/span&gt;&lt;/div&gt;&lt;div&gt;&lt;span style=&quot;color: rgb(64, 120, 242);&quot;&gt;(vb2_ioctl_dqbuf)&lt;/span&gt;&lt;/div&gt;&lt;/div&gt;" style="text;whiteSpace=wrap;html=1;align=center;" parent="1" vertex="1">
          <mxGeometry x="320" y="140" width="140" height="50" as="geometry" />
        </mxCell>
        <mxCell id="wNvszSJTGbj_hHc-pR2u-63" style="edgeStyle=orthogonalEdgeStyle;rounded=0;orthogonalLoop=1;jettySize=auto;html=1;exitX=0.5;exitY=1;exitDx=0;exitDy=0;entryX=0.5;entryY=0;entryDx=0;entryDy=0;" parent="1" source="wNvszSJTGbj_hHc-pR2u-62" target="wNvszSJTGbj_hHc-pR2u-59" edge="1">
          <mxGeometry relative="1" as="geometry" />
        </mxCell>
        <mxCell id="wNvszSJTGbj_hHc-pR2u-62" value="&lt;div style=&quot;color: #383a42;background-color: #f5f5f5;font-family: Consolas, &#39;Courier New&#39;, monospace;font-weight: normal;font-size: 14px;line-height: 19px;white-space: pre;&quot;&gt;&lt;div&gt;&lt;span style=&quot;color: #4078f2;&quot;&gt;v4l_dqbuf&lt;/span&gt;&lt;/div&gt;&lt;/div&gt;" style="text;whiteSpace=wrap;html=1;" parent="1" vertex="1">
          <mxGeometry x="350" y="90" width="80" height="30" as="geometry" />
        </mxCell>
        <mxCell id="wNvszSJTGbj_hHc-pR2u-65" value="" style="edgeStyle=orthogonalEdgeStyle;rounded=0;orthogonalLoop=1;jettySize=auto;html=1;" parent="1" source="wNvszSJTGbj_hHc-pR2u-64" target="wNvszSJTGbj_hHc-pR2u-62" edge="1">
          <mxGeometry relative="1" as="geometry" />
        </mxCell>
        <mxCell id="wNvszSJTGbj_hHc-pR2u-64" value="&lt;div style=&quot;color: #383a42;background-color: #f5f5f5;font-family: Consolas, &#39;Courier New&#39;, monospace;font-weight: normal;font-size: 14px;line-height: 19px;white-space: pre;&quot;&gt;&lt;div&gt;&lt;span style=&quot;color: #aca600;&quot;&gt;VIDIOC_DQBUF&lt;/span&gt;&lt;/div&gt;&lt;/div&gt;" style="text;whiteSpace=wrap;html=1;" parent="1" vertex="1">
          <mxGeometry x="339.5" y="40" width="101" height="30" as="geometry" />
        </mxCell>
        <mxCell id="wNvszSJTGbj_hHc-pR2u-69" style="edgeStyle=orthogonalEdgeStyle;rounded=0;orthogonalLoop=1;jettySize=auto;html=1;exitX=0.5;exitY=1;exitDx=0;exitDy=0;entryX=0.5;entryY=0;entryDx=0;entryDy=0;" parent="1" source="wNvszSJTGbj_hHc-pR2u-66" target="wNvszSJTGbj_hHc-pR2u-68" edge="1">
          <mxGeometry relative="1" as="geometry" />
        </mxCell>
        <mxCell id="wNvszSJTGbj_hHc-pR2u-66" value="&lt;div style=&quot;color: #383a42;background-color: #f5f5f5;font-family: Consolas, &#39;Courier New&#39;, monospace;font-weight: normal;font-size: 14px;line-height: 19px;white-space: pre;&quot;&gt;&lt;div&gt;&lt;span style=&quot;color: #4078f2;&quot;&gt;__vb2_get_done_vb&lt;/span&gt;&lt;/div&gt;&lt;/div&gt;" style="text;whiteSpace=wrap;html=1;" parent="1" vertex="1">
          <mxGeometry x="260" y="355" width="140" height="30" as="geometry" />
        </mxCell>
        <mxCell id="wNvszSJTGbj_hHc-pR2u-71" style="edgeStyle=orthogonalEdgeStyle;rounded=0;orthogonalLoop=1;jettySize=auto;html=1;exitX=0.5;exitY=1;exitDx=0;exitDy=0;entryX=0.5;entryY=0;entryDx=0;entryDy=0;" parent="1" source="wNvszSJTGbj_hHc-pR2u-68" target="wNvszSJTGbj_hHc-pR2u-70" edge="1">
          <mxGeometry relative="1" as="geometry" />
        </mxCell>
        <mxCell id="wNvszSJTGbj_hHc-pR2u-68" value="&lt;div style=&quot;color: #383a42;background-color: #f5f5f5;font-family: Consolas, &#39;Courier New&#39;, monospace;font-weight: normal;font-size: 14px;line-height: 19px;white-space: pre;&quot;&gt;&lt;div&gt;&lt;span style=&quot;color: #4078f2;&quot;&gt;__vb2_wait_for_done_vb&lt;/span&gt;&lt;/div&gt;&lt;/div&gt;" style="text;whiteSpace=wrap;html=1;" parent="1" vertex="1">
          <mxGeometry x="240" y="420" width="180" height="30" as="geometry" />
        </mxCell>
        <mxCell id="wNvszSJTGbj_hHc-pR2u-73" style="edgeStyle=orthogonalEdgeStyle;rounded=0;orthogonalLoop=1;jettySize=auto;html=1;exitX=0.5;exitY=1;exitDx=0;exitDy=0;entryX=0.5;entryY=0;entryDx=0;entryDy=0;" parent="1" source="wNvszSJTGbj_hHc-pR2u-70" target="wNvszSJTGbj_hHc-pR2u-72" edge="1">
          <mxGeometry relative="1" as="geometry" />
        </mxCell>
        <mxCell id="wNvszSJTGbj_hHc-pR2u-70" value="&lt;div style=&quot;color: rgb(56, 58, 66); background-color: rgb(245, 245, 245); font-family: Consolas, &amp;quot;Courier New&amp;quot;, monospace; font-weight: normal; font-size: 14px; line-height: 19px; white-space: pre;&quot;&gt;&lt;div&gt;&lt;span style=&quot;color: rgb(228, 86, 73);&quot;&gt;vb2_ops-&amp;gt;wait_prepare&lt;/span&gt;&lt;/div&gt;&lt;/div&gt;" style="text;whiteSpace=wrap;html=1;" parent="1" vertex="1">
          <mxGeometry x="245" y="480" width="170" height="30" as="geometry" />
        </mxCell>
        <mxCell id="wNvszSJTGbj_hHc-pR2u-72" value="&lt;div style=&quot;color: rgb(56, 58, 66); background-color: rgb(245, 245, 245); font-family: Consolas, &amp;quot;Courier New&amp;quot;, monospace; font-weight: normal; font-size: 14px; line-height: 19px; white-space: pre;&quot;&gt;&lt;div&gt;&lt;span style=&quot;color: rgb(228, 86, 73);&quot;&gt;vb2_ops-&amp;gt;wait_finish&lt;/span&gt;&lt;/div&gt;&lt;/div&gt;" style="text;whiteSpace=wrap;html=1;" parent="1" vertex="1">
          <mxGeometry x="245" y="530" width="170" height="30" as="geometry" />
        </mxCell>
        <mxCell id="wNvszSJTGbj_hHc-pR2u-74" value="&lt;div style=&quot;color: rgb(56, 58, 66); background-color: rgb(245, 245, 245); font-family: Consolas, &amp;quot;Courier New&amp;quot;, monospace; font-weight: normal; font-size: 14px; line-height: 19px; white-space: pre;&quot;&gt;&lt;div&gt;&lt;span style=&quot;color: rgb(228, 86, 73);&quot;&gt;vb2_ops-&amp;gt;buf_finish&lt;/span&gt;&lt;/div&gt;&lt;/div&gt;" style="text;whiteSpace=wrap;html=1;" parent="1" vertex="1">
          <mxGeometry x="420" y="355" width="160" height="30" as="geometry" />
        </mxCell>
        <mxCell id="wNvszSJTGbj_hHc-pR2u-84" value="" style="edgeStyle=orthogonalEdgeStyle;rounded=0;orthogonalLoop=1;jettySize=auto;html=1;" parent="1" source="wNvszSJTGbj_hHc-pR2u-78" target="wNvszSJTGbj_hHc-pR2u-81" edge="1">
          <mxGeometry relative="1" as="geometry" />
        </mxCell>
        <mxCell id="wNvszSJTGbj_hHc-pR2u-86" style="edgeStyle=orthogonalEdgeStyle;rounded=0;orthogonalLoop=1;jettySize=auto;html=1;exitX=0.5;exitY=1;exitDx=0;exitDy=0;entryX=0.5;entryY=0;entryDx=0;entryDy=0;" parent="1" source="wNvszSJTGbj_hHc-pR2u-78" target="wNvszSJTGbj_hHc-pR2u-82" edge="1">
          <mxGeometry relative="1" as="geometry" />
        </mxCell>
        <mxCell id="wNvszSJTGbj_hHc-pR2u-78" value="&lt;div style=&quot;color: #383a42;background-color: #f5f5f5;font-family: Consolas, &#39;Courier New&#39;, monospace;font-weight: normal;font-size: 14px;line-height: 19px;white-space: pre;&quot;&gt;&lt;div&gt;&lt;span style=&quot;color: #4078f2;&quot;&gt;vb2_start_streaming&lt;/span&gt;&lt;/div&gt;&lt;/div&gt;" style="text;whiteSpace=wrap;html=1;" parent="1" vertex="1">
          <mxGeometry x="-157" y="330" width="157" height="30" as="geometry" />
        </mxCell>
        <mxCell id="wNvszSJTGbj_hHc-pR2u-79" value="&lt;div style=&quot;color: rgb(56, 58, 66); background-color: rgb(245, 245, 245); font-family: Consolas, &amp;quot;Courier New&amp;quot;, monospace; font-weight: normal; font-size: 14px; line-height: 19px; white-space: pre;&quot;&gt;&lt;div&gt;&lt;span style=&quot;color: rgb(228, 86, 73);&quot;&gt;vb2_ops-&amp;gt;buf_queue&lt;/span&gt;&lt;/div&gt;&lt;/div&gt;" style="text;whiteSpace=wrap;html=1;" parent="1" vertex="1">
          <mxGeometry x="-194.5" y="460" width="146" height="30" as="geometry" />
        </mxCell>
        <mxCell id="wNvszSJTGbj_hHc-pR2u-85" value="" style="edgeStyle=orthogonalEdgeStyle;rounded=0;orthogonalLoop=1;jettySize=auto;html=1;" parent="1" source="wNvszSJTGbj_hHc-pR2u-81" target="wNvszSJTGbj_hHc-pR2u-79" edge="1">
          <mxGeometry relative="1" as="geometry" />
        </mxCell>
        <mxCell id="wNvszSJTGbj_hHc-pR2u-81" value="&lt;div style=&quot;color: #383a42;background-color: #f5f5f5;font-family: Consolas, &#39;Courier New&#39;, monospace;font-weight: normal;font-size: 14px;line-height: 19px;white-space: pre;&quot;&gt;&lt;div&gt;&lt;span style=&quot;color: #4078f2;&quot;&gt;__enqueue_in_driver&lt;/span&gt;&lt;/div&gt;&lt;/div&gt;" style="text;whiteSpace=wrap;html=1;" parent="1" vertex="1">
          <mxGeometry x="-200" y="400" width="157" height="30" as="geometry" />
        </mxCell>
        <mxCell id="wNvszSJTGbj_hHc-pR2u-82" value="&lt;div style=&quot;color: rgb(56, 58, 66); background-color: rgb(245, 245, 245); font-family: Consolas, &amp;quot;Courier New&amp;quot;, monospace; font-weight: normal; font-size: 14px; line-height: 19px; white-space: pre;&quot;&gt;&lt;div&gt;&lt;span style=&quot;color: rgb(228, 86, 73);&quot;&gt;vb2_ops-&amp;gt;start_streaming&lt;/span&gt;&lt;/div&gt;&lt;/div&gt;" style="text;whiteSpace=wrap;html=1;" parent="1" vertex="1">
          <mxGeometry x="-20" y="400" width="190" height="30" as="geometry" />
        </mxCell>
        <mxCell id="SbhBJHjWAyHaKrAGIAYN-3" value="" style="edgeStyle=orthogonalEdgeStyle;rounded=0;orthogonalLoop=1;jettySize=auto;html=1;" edge="1" parent="1" source="SbhBJHjWAyHaKrAGIAYN-1" target="SbhBJHjWAyHaKrAGIAYN-2">
          <mxGeometry relative="1" as="geometry" />
        </mxCell>
        <mxCell id="SbhBJHjWAyHaKrAGIAYN-1" value="&lt;div style=&quot;color: #383a42;background-color: #f5f5f5;font-family: Consolas, &#39;Courier New&#39;, monospace;font-weight: normal;font-size: 14px;line-height: 19px;white-space: pre;&quot;&gt;&lt;div&gt;&lt;span style=&quot;color: #aca600;&quot;&gt;VIDIOC_S_FMT&lt;/span&gt;&lt;/div&gt;&lt;/div&gt;" style="text;whiteSpace=wrap;html=1;" vertex="1" parent="1">
          <mxGeometry x="-640" y="540" width="100" height="30" as="geometry" />
        </mxCell>
        <mxCell id="SbhBJHjWAyHaKrAGIAYN-6" style="edgeStyle=orthogonalEdgeStyle;rounded=0;orthogonalLoop=1;jettySize=auto;html=1;exitX=0.5;exitY=1;exitDx=0;exitDy=0;entryX=0.5;entryY=0;entryDx=0;entryDy=0;" edge="1" parent="1" source="SbhBJHjWAyHaKrAGIAYN-2" target="SbhBJHjWAyHaKrAGIAYN-4">
          <mxGeometry relative="1" as="geometry" />
        </mxCell>
        <mxCell id="SbhBJHjWAyHaKrAGIAYN-2" value="&lt;div style=&quot;color: #383a42;background-color: #f5f5f5;font-family: Consolas, &#39;Courier New&#39;, monospace;font-weight: normal;font-size: 14px;line-height: 19px;white-space: pre;&quot;&gt;&lt;div&gt;&lt;span style=&quot;color: #4078f2;&quot;&gt;v4l_s_fmt&lt;/span&gt;&lt;/div&gt;&lt;/div&gt;" style="text;whiteSpace=wrap;html=1;" vertex="1" parent="1">
          <mxGeometry x="-630" y="600" width="80" height="30" as="geometry" />
        </mxCell>
        <mxCell id="SbhBJHjWAyHaKrAGIAYN-8" value="" style="edgeStyle=orthogonalEdgeStyle;rounded=0;orthogonalLoop=1;jettySize=auto;html=1;" edge="1" parent="1" source="SbhBJHjWAyHaKrAGIAYN-4" target="SbhBJHjWAyHaKrAGIAYN-7">
          <mxGeometry relative="1" as="geometry" />
        </mxCell>
        <mxCell id="SbhBJHjWAyHaKrAGIAYN-4" value="&lt;div style=&quot;color: rgb(56, 58, 66); background-color: rgb(245, 245, 245); font-family: Consolas, &amp;quot;Courier New&amp;quot;, monospace; font-weight: normal; font-size: 14px; line-height: 19px; white-space: pre;&quot;&gt;&lt;div&gt;&lt;span style=&quot;color: rgb(228, 86, 73);&quot;&gt;.vidioc_s_fmt_vid_cap_mplane&lt;/span&gt;&lt;/div&gt;&lt;div&gt;&lt;span style=&quot;color: rgb(228, 86, 73);&quot;&gt;(&lt;/span&gt;&lt;span style=&quot;color: rgb(64, 120, 242); background-color: light-dark(rgb(245, 245, 245), rgb(26, 26, 26));&quot;&gt;rkcif_s_fmt_vid_cap_mplane&lt;/span&gt;&lt;span style=&quot;color: light-dark(rgb(228, 86, 73), rgb(235, 113, 102)); background-color: light-dark(rgb(245, 245, 245), rgb(26, 26, 26));&quot;&gt;)&lt;/span&gt;&lt;/div&gt;&lt;/div&gt;" style="text;whiteSpace=wrap;html=1;" vertex="1" parent="1">
          <mxGeometry x="-700" y="660" width="220" height="50" as="geometry" />
        </mxCell>
        <mxCell id="SbhBJHjWAyHaKrAGIAYN-7" value="&lt;div style=&quot;color: #383a42;background-color: #f5f5f5;font-family: Consolas, &#39;Courier New&#39;, monospace;font-weight: normal;font-size: 14px;line-height: 19px;white-space: pre;&quot;&gt;&lt;div&gt;&lt;span style=&quot;color: #4078f2;&quot;&gt;rkcif_set_fmt&lt;/span&gt;&lt;/div&gt;&lt;/div&gt;" style="text;whiteSpace=wrap;html=1;" vertex="1" parent="1">
          <mxGeometry x="-642.5" y="730" width="105" height="30" as="geometry" />
        </mxCell>
      </root>
    </mxGraphModel>
  </diagram>
</mxfile>
